<?xml version="1.0" encoding="iso-8859-1"?>
<!-- Uploaded to: SVG Repo, www.svgrepo.com, Generator: SVG Repo Mixer Tools -->
<svg fill="#000000" height="800px" width="800px" version="1.1" id="Layer_1" xmlns="http://www.w3.org/2000/svg" xmlns:xlink="http://www.w3.org/1999/xlink" 
	 viewBox="0 0 512 512" xml:space="preserve">
<g>
	<g>
		<path d="M478.734,0H33.266C21.284,0,11.571,9.714,11.571,21.695v468.61c0,11.981,9.714,21.695,21.695,21.695h445.469
			c11.981,0,21.695-9.714,21.695-21.695V21.695C500.429,9.714,490.716,0,478.734,0z M457.04,468.61h-43.289l43.289-43.54V468.61z
			 M383.277,437.676v-42.829h43.082L383.277,437.676z M457.04,351.458h-95.664c-11.981,0-21.488,9.254-21.488,21.236v95.916H54.96
			V154.757H457.04V351.458z M457.04,111.367H54.96V43.39H457.04V111.367z"/>
	</g>
</g>
</svg>